<?xml version="1.0" standalone="no"?>
<!DOCTYPE svg PUBLIC "-//W3C//DTD SVG 20010904//EN"
 "http://www.w3.org/TR/2001/REC-SVG-20010904/DTD/svg10.dtd">
<svg version="1.0" xmlns="http://www.w3.org/2000/svg"
 width="370.000000pt" height="370.000000pt" viewBox="0 0 370.000000 370.000000"
 preserveAspectRatio="xMidYMid meet">

<g transform="translate(0.000000,370.000000) scale(0.100000,-0.100000)"
fill="#000000" stroke="none">
<path d="M935 3336 c-158 -31 -303 -106 -422 -220 -129 -121 -210 -258 -255
-424 -27 -101 -29 -270 -4 -361 31 -115 118 -264 223 -383 75 -85 355 -358
366 -358 6 0 44 34 85 76 l75 76 -185 186 c-210 213 -243 252 -292 348 -64
124 -77 212 -51 339 49 234 244 435 475 489 84 20 216 20 294 0 177 -46 362
-161 523 -324 l82 -84 83 85 c98 100 240 204 356 260 284 137 556 96 768 -115
113 -113 183 -280 184 -438 l0 -58 116 0 117 0 -7 96 c-17 221 -93 398 -240
553 -185 194 -412 283 -685 268 -222 -12 -415 -95 -619 -267 l-73 -61 -62 53
c-145 126 -267 195 -433 244 -110 32 -307 42 -419 20z"/>
<path d="M2357 2312 l-233 -232 -227 0 c-171 0 -236 -3 -260 -14 -18 -7 -137
-120 -268 -252 -211 -214 -239 -247 -272 -314 -65 -133 -66 -257 -2 -388 35
-72 58 -98 339 -378 262 -263 309 -305 366 -333 137 -66 267 -65 409 5 72 35
102 62 591 550 l515 514 -82 82 -83 83 -512 -511 c-450 -449 -519 -514 -563
-530 -64 -24 -124 -23 -165 3 -18 11 -158 146 -312 299 -296 294 -328 335
-328 417 0 22 8 55 17 75 10 21 112 133 227 250 l209 212 86 0 86 0 -103 -103
c-56 -56 -102 -107 -102 -112 0 -11 141 -155 152 -155 6 0 855 845 890 886 17
19 15 22 -62 99 l-80 79 -233 -232z"/>
<path d="M2525 1990 c-233 -234 -425 -431 -425 -439 0 -8 35 -47 77 -88 l77
-74 418 418 c230 230 421 426 424 437 5 14 -13 38 -70 94 l-76 76 -425 -424z"/>
<path d="M2706 1681 c-318 -319 -367 -371 -358 -387 13 -24 137 -144 149 -144
5 0 175 167 378 370 l369 370 -79 80 c-44 44 -82 80 -85 80 -3 -1 -171 -166
-374 -369z"/>
</g>
</svg>
