<?xml version="1.0" standalone="no"?>
<!DOCTYPE svg PUBLIC "-//W3C//DTD SVG 20010904//EN"
 "http://www.w3.org/TR/2001/REC-SVG-20010904/DTD/svg10.dtd">
<svg version="1.0" xmlns="http://www.w3.org/2000/svg"
 width="512.000000pt" height="512.000000pt" viewBox="0 0 512.000000 512.000000"
 preserveAspectRatio="xMidYMid meet">

<g transform="translate(0.000000,512.000000) scale(0.100000,-0.100000)"
fill="#000000" stroke="none">
<path d="M2505 5029 c-363 -38 -739 -186 -1034 -407 -95 -71 -273 -243 -357
-343 -462 -554 -597 -1335 -349 -2026 87 -241 257 -522 418 -690 l41 -43 -92
0 c-76 0 -92 3 -92 15 0 9 -11 27 -25 40 l-24 25 -311 0 -311 0 -24 -25 -25
-24 0 -711 0 -711 25 -24 24 -25 351 0 351 0 24 25 c21 20 25 34 25 80 l0 55
135 0 c131 0 137 1 160 25 18 17 25 35 25 64 l0 40 93 30 c272 87 546 102 867
47 80 -14 192 -30 249 -36 457 -46 922 77 1294 343 48 35 247 201 441 370 322
279 357 313 383 365 40 82 40 183 -1 265 -35 73 -106 131 -185 153 l-56 16 62
126 c168 339 240 738 203 1113 -73 717 -509 1346 -1155 1665 -345 170 -749
243 -1130 203z m520 -174 c611 -107 1107 -465 1392 -1003 243 -457 288 -997
127 -1492 -41 -125 -125 -303 -197 -418 -51 -82 -59 -89 -370 -339 -175 -140
-320 -253 -321 -251 -9 15 -36 80 -36 87 0 4 45 38 101 75 190 129 395 349
514 551 475 806 236 1839 -545 2362 -575 385 -1341 387 -1930 6 -494 -321
-800 -884 -800 -1473 0 -432 175 -880 463 -1186 l86 -91 -42 -34 c-96 -79 -74
-82 -172 28 -683 767 -653 1918 69 2639 308 306 689 492 1126 550 131 17 410
11 535 -11z m-305 -535 l80 0 0 118 0 118 83 -8 c299 -29 600 -152 841 -345
l68 -56 -83 -83 -84 -84 58 -57 57 -58 84 84 83 83 56 -68 c193 -241 316 -542
345 -841 l8 -83 -118 0 -118 0 0 -80 0 -80 120 0 119 0 -5 -52 c-34 -330 -156
-637 -346 -867 l-60 -73 -84 83 -84 84 -57 -58 -58 -57 83 -83 84 -84 -54 -45
c-56 -47 -129 -99 -190 -136 l-36 -23 -48 31 c-111 70 -128 73 -464 81 -335 7
-363 11 -561 83 -53 19 -134 42 -179 50 -46 9 -85 18 -86 19 -2 2 110 202 249
445 l252 442 39 0 c130 0 246 113 246 240 0 81 -62 182 -130 210 l-30 12 0
369 0 369 -80 0 -80 0 0 -369 0 -369 -30 -12 c-17 -7 -48 -32 -69 -56 -67 -77
-79 -166 -33 -258 l29 -56 -263 -460 -262 -459 31 -20 32 -21 -65 0 c-80 -1
-195 -21 -277 -49 -34 -11 -68 -21 -75 -21 -7 0 26 38 72 85 l85 85 -58 57
-57 58 -83 -83 -84 -84 -45 54 c-196 229 -329 555 -362 881 l-6 57 120 0 120
0 0 80 0 80 -118 0 -118 0 8 83 c29 299 152 600 345 841 l56 68 83 -83 84 -84
57 58 58 57 -84 84 -83 83 68 56 c240 192 547 318 840 345 l79 7 3 -117 3
-118 79 0z m55 -1305 c16 -15 25 -36 25 -55 0 -19 -9 -40 -25 -55 -15 -16 -36
-25 -55 -25 -19 0 -40 9 -55 25 -16 15 -25 36 -25 55 0 19 9 40 25 55 15 16
36 25 55 25 19 0 40 -9 55 -25z m1793 -1275 c64 -39 89 -118 57 -180 -13 -26
-490 -449 -685 -607 -264 -214 -576 -345 -915 -383 -184 -20 -335 -11 -615 37
-134 23 -183 27 -360 27 -220 0 -308 -11 -490 -60 -52 -15 -104 -28 -116 -31
-20 -4 -21 4 -48 393 l-28 399 108 105 c165 160 309 226 514 237 135 7 252
-13 425 -72 210 -73 235 -76 570 -84 l300 -6 52 -28 c68 -35 120 -88 149 -151
l24 -51 -395 -3 -395 -2 0 -80 0 -80 454 0 454 0 383 307 c210 168 394 312
408 319 38 20 111 17 149 -6z m-3651 -840 c17 -294 32 -563 32 -597 l1 -63
-235 0 -235 0 0 600 0 600 203 -2 202 -3 32 -535z m321 3 c18 -252 32 -468 32
-480 0 -22 -4 -23 -80 -23 -75 0 -80 1 -84 22 -3 13 -14 196 -26 408 -11 212
-23 418 -27 458 l-6 72 80 0 79 0 32 -457z"/>
</g>
</svg>
