<?xml version="1.0" standalone="no"?>
<!DOCTYPE svg PUBLIC "-//W3C//DTD SVG 20010904//EN"
 "http://www.w3.org/TR/2001/REC-SVG-20010904/DTD/svg10.dtd">
<svg version="1.0" xmlns="http://www.w3.org/2000/svg"
 width="256.000000pt" height="256.000000pt" viewBox="0 0 256.000000 256.000000"
 preserveAspectRatio="xMidYMid meet">

<g transform="translate(0.000000,256.000000) scale(0.100000,-0.100000)"
fill="#000000" stroke="none">
<path d="M541 2266 c-17 -20 -10 -67 11 -79 27 -18 68 7 68 41 0 15 -5 33 -12
40 -16 16 -53 15 -67 -2z"/>
<path d="M1854 2169 l-112 -111 -114 -3 c-127 -2 -191 -20 -290 -81 l-58 -35
-67 41 c-98 59 -150 73 -281 75 l-112 3 -50 46 c-27 25 -53 46 -57 46 -5 0
-19 -7 -31 -16 -37 -25 -27 -54 38 -119 l61 -60 127 0 c138 -1 203 -17 267
-69 l30 -25 -141 -143 c-153 -154 -170 -184 -161 -264 10 -91 92 -164 185
-164 63 0 91 15 173 96 l77 74 89 0 89 0 242 -243 c257 -258 265 -269 222
-315 -40 -42 -65 -31 -180 83 -59 58 -114 105 -124 105 -18 0 -56 -34 -56 -51
0 -6 47 -60 105 -119 84 -86 105 -113 105 -136 0 -16 -4 -34 -8 -40 -9 -14
-46 -34 -62 -34 -7 0 -61 47 -120 105 -108 106 -139 122 -168 93 -29 -29 -12
-58 93 -168 58 -59 105 -114 105 -120 0 -16 -21 -53 -34 -62 -6 -4 -24 -8 -39
-8 -22 0 -51 23 -137 105 -59 58 -112 105 -117 105 -20 0 -53 -33 -53 -52 0
-12 41 -62 105 -128 112 -115 124 -141 85 -180 -33 -33 -66 -25 -126 32 -49
46 -54 55 -48 81 16 75 -42 163 -126 188 -31 9 -40 17 -40 34 0 50 -86 135
-136 135 -19 0 -24 7 -30 36 -9 50 -77 120 -126 129 -31 6 -37 11 -42 41 -8
39 -47 89 -87 109 -33 18 -111 20 -142 4 -12 -6 -49 -38 -83 -71 l-61 -60 -31
48 c-64 96 -84 190 -72 337 l3 48 -124 125 c-68 69 -132 130 -142 135 -24 14
-67 -14 -67 -43 0 -13 40 -62 113 -135 l112 -114 1 -102 c2 -150 45 -265 139
-367 23 -25 45 -57 49 -72 10 -45 64 -98 112 -110 37 -10 43 -16 49 -45 9 -51
69 -111 121 -124 36 -9 44 -16 44 -34 0 -49 86 -135 135 -135 18 0 25 -8 34
-44 13 -53 74 -112 125 -122 61 -11 104 4 157 53 l49 46 54 -52 c30 -28 67
-56 81 -61 93 -35 202 27 221 126 5 28 11 33 44 38 50 8 104 59 120 114 12 37
18 43 52 52 53 15 106 70 114 120 5 31 11 40 26 40 31 0 97 38 115 68 9 15 54
65 98 112 126 133 185 279 171 430 l-6 64 115 117 c73 74 115 123 115 137 0
20 -33 52 -54 52 -5 0 -70 -60 -143 -132 l-135 -133 7 -82 c11 -139 -27 -261
-108 -346 l-42 -44 -230 234 -230 234 35 27 c76 59 98 100 68 130 -22 22 -56
12 -104 -29 -63 -55 -78 -59 -200 -59 -59 0 -115 -5 -127 -11 -12 -7 -56 -45
-98 -85 -65 -63 -82 -74 -111 -74 -57 0 -99 56 -84 113 3 12 85 102 183 198
189 187 238 222 352 249 69 16 180 8 251 -19 30 -12 82 -41 115 -66 60 -46 91
-55 113 -33 34 34 -11 95 -114 154 -27 15 -51 29 -53 31 -3 2 36 45 87 96 93
94 110 125 80 155 -26 26 -54 9 -164 -99z m-1162 -1086 c34 -31 23 -71 -35
-130 -60 -59 -99 -69 -132 -33 -31 35 -22 67 36 126 58 59 95 69 131 37z m149
-154 c31 -16 42 -55 25 -87 -21 -40 -87 -100 -118 -107 -21 -5 -33 -1 -52 19
-39 38 -33 62 32 128 60 59 78 66 113 47z m181 -176 c34 -31 23 -71 -35 -130
-58 -57 -94 -68 -129 -36 -34 31 -23 71 35 130 58 57 94 68 129 36z m163 -168
c38 -37 32 -61 -33 -127 -66 -65 -90 -71 -128 -32 -20 19 -24 31 -19 52 11 45
105 132 143 132 7 0 24 -11 37 -25z"/>
<path d="M2096 1754 c-30 -30 -9 -84 33 -84 21 0 51 30 51 52 0 19 -32 48 -53
48 -8 0 -23 -7 -31 -16z"/>
</g>
</svg>
